<svg width="32" height="32" viewBox="0 0 32 32" fill="none" xmlns="http://www.w3.org/2000/svg">
<path d="M29.875 25.775L28.0875 9.77504C28.0349 9.28557 27.8025 8.83305 27.4353 8.50513C27.0681 8.1772 26.5923 7.99722 26.1 8.00004H21.9125C21.6719 6.6064 20.9466 5.34256 19.8649 4.43157C18.7831 3.52058 17.4143 3.021 16 3.021C14.5857 3.021 13.2169 3.52058 12.1351 4.43157C11.0534 5.34256 10.3282 6.6064 10.0875 8.00004H5.9C5.40771 7.99722 4.9319 8.1772 4.56472 8.50513C4.19754 8.83305 3.96513 9.28557 3.9125 9.77504L2.125 25.775C2.09473 26.056 2.12357 26.3401 2.20968 26.6092C2.29579 26.8783 2.43727 27.1264 2.625 27.3375C2.81211 27.5467 3.0414 27.7139 3.29779 27.8281C3.55417 27.9423 3.83184 28.0009 4.1125 28H27.8875C28.1682 28.0009 28.4458 27.9423 28.7022 27.8281C28.9586 27.7139 29.1879 27.5467 29.375 27.3375C29.5627 27.1264 29.7042 26.8783 29.7903 26.6092C29.8764 26.3401 29.9053 26.056 29.875 25.775ZM12 13C12 13.2653 11.8946 13.5196 11.7071 13.7072C11.5196 13.8947 11.2652 14 11 14C10.7348 14 10.4804 13.8947 10.2929 13.7072C10.1054 13.5196 10 13.2653 10 13V11C10 10.7348 10.1054 10.4805 10.2929 10.2929C10.4804 10.1054 10.7348 10 11 10C11.2652 10 11.5196 10.1054 11.7071 10.2929C11.8946 10.4805 12 10.7348 12 11V13ZM12.125 8.00004C12.3453 7.13963 12.8457 6.37701 13.5473 5.8324C14.2489 5.2878 15.1118 4.9922 16 4.9922C16.8882 4.9922 17.7511 5.2878 18.4527 5.8324C19.1543 6.37701 19.6547 7.13963 19.875 8.00004H12.125ZM22 13C22 13.2653 21.8946 13.5196 21.7071 13.7072C21.5196 13.8947 21.2652 14 21 14C20.7348 14 20.4804 13.8947 20.2929 13.7072C20.1054 13.5196 20 13.2653 20 13V11C20 10.7348 20.1054 10.4805 20.2929 10.2929C20.4804 10.1054 20.7348 10 21 10C21.2652 10 21.5196 10.1054 21.7071 10.2929C21.8946 10.4805 22 10.7348 22 11V13Z" fill="white"/>
</svg>
